<svg xmlns="http://www.w3.org/2000/svg" width="200.646" height="200.646" viewBox="0 0 200.646 200.646"><g transform="translate(0 0)"><path d="M46.106,7.581H163.76a38.525,38.525,0,0,1,38.525,38.525V163.76a38.525,38.525,0,0,1-38.525,38.525H46.106A38.525,38.525,0,0,1,7.581,163.76V46.106A38.525,38.525,0,0,1,46.106,7.581Z" transform="translate(-4.61 -4.61)" fill="#a0cafe"/><g transform="translate(26.918 17.529)"><path d="M347.858,216.153A24.035,24.035,0,0,0,318.489,244.9a88.158,88.158,0,0,1-1.684,46.641,16.15,16.15,0,0,0,30.808,9.7l17.2-54.6A24.03,24.03,0,0,0,347.858,216.153Z" transform="translate(-219.115 -148.516)" fill="#e6f1ff"/><path d="M86.756,216.153A24.035,24.035,0,0,1,116.124,244.9a88.158,88.158,0,0,0,1.684,46.641A16.15,16.15,0,1,1,87,301.244l-17.2-54.6A24.029,24.029,0,0,1,86.756,216.153Z" transform="translate(-68.688 -148.516)" fill="#e6f1ff"/><path d="M225.139,65.686q-7.683,13.982-15.37,27.96a6.981,6.981,0,0,1-8.909,3.054,72.322,72.322,0,0,0-26.236-6.089q-2.971-.125-5.942,0A72.318,72.318,0,0,0,142.444,96.7a6.981,6.981,0,0,1-8.909-3.054q-7.683-13.982-15.37-27.96a6.991,6.991,0,0,1,3.11-9.69A118.265,118.265,0,0,1,222.03,56a6.99,6.99,0,0,1,3.109,9.69Z" transform="translate(-98.246 -44.73)" fill="#e6f1ff"/></g><path d="M150.208,106.159a71.628,71.628,0,0,0-7.764,2.9,6.981,6.981,0,0,1-8.909-3.054q-7.683-13.982-15.37-27.96a6.991,6.991,0,0,1,3.11-9.69q3.809-1.795,7.7-3.3a9.743,9.743,0,0,0,1.216,4.7Q140.2,87.958,150.208,106.159Z" transform="translate(-71.328 -39.563)" fill="#d9e9ff"/><path d="M339.142,310.978A16.146,16.146,0,0,1,316.8,291.539a88.132,88.132,0,0,0,1.684-46.642,24.038,24.038,0,0,1,29.37-28.744c.333.087.661.178.99.277a24.022,24.022,0,0,0-16.5,28.467,88.135,88.135,0,0,1-1.684,46.642,16.136,16.136,0,0,0,8.473,19.438Z" transform="translate(-192.197 -130.987)" fill="#d9e9ff"/><path d="M109.337,310.976a15.811,15.811,0,0,1-2.08.816A16.123,16.123,0,0,1,87,301.242l-17.2-54.6a24.029,24.029,0,0,1,16.951-30.5,23.757,23.757,0,0,1,12.875.277,24.028,24.028,0,0,0-15.96,30.218l17.2,54.6a16.115,16.115,0,0,0,8.469,9.733Z" transform="translate(-41.771 -130.984)" fill="#d9e9ff"/><path d="M196.89,191.433a38.5,38.5,0,0,1-33.129,18.856H46.106A38.525,38.525,0,0,1,7.581,171.764V54.109a38.5,38.5,0,0,1,19.26-33.367,38.328,38.328,0,0,0-5.4,19.668V158.065A38.525,38.525,0,0,0,59.971,196.59H177.625A38.321,38.321,0,0,0,196.89,191.433Z" transform="translate(-4.61 -12.613)" fill="#81b8fd"/><path d="M159.151,0H41.5A41.543,41.543,0,0,0,0,41.5V159.15a41.543,41.543,0,0,0,41.5,41.5H135.24a2.971,2.971,0,1,0,0-5.942H41.5A35.594,35.594,0,0,1,5.942,159.151V41.5A35.594,35.594,0,0,1,41.5,5.942H159.15A35.594,35.594,0,0,1,194.7,41.5V159.15A35.594,35.594,0,0,1,159.15,194.7H147.124a2.971,2.971,0,1,0,0,5.942H159.15a41.542,41.542,0,0,0,41.5-41.5V41.5A41.543,41.543,0,0,0,159.151,0Z"/><path d="M336.384,308.725a18.994,18.994,0,0,0,9.4-11.214l17.2-54.6a26.98,26.98,0,0,0-19.043-34.265c-19.224-4.961-37.683,12.368-33,32.3a85.251,85.251,0,0,1-1.625,45.069c-5.093,16.166,11.936,30.588,27.071,22.7Zm-21.4-20.917a91.194,91.194,0,0,0,1.742-48.213,21.058,21.058,0,1,1,40.593,1.536l-17.2,54.6a13.093,13.093,0,0,1-6.481,7.729C323.328,308.826,311.437,299.055,314.98,287.808Z" transform="translate(-187.537 -126.362)"/><path d="M97.788,304.938a13.127,13.127,0,0,1-12.566-9.224l-12.881-40.9a2.971,2.971,0,1,0-5.667,1.785l12.881,40.9a19.121,19.121,0,1,0,36.475-11.489,85.19,85.19,0,0,1-1.625-45.069c4.673-19.9-13.638-37.3-33-32.3a27.018,27.018,0,0,0-20.3,26.147,31.1,31.1,0,0,0,2,10.481,2.971,2.971,0,0,0,5.668-1.785,25.645,25.645,0,0,1-1.724-8.7,21.062,21.062,0,1,1,41.573,4.8,91.129,91.129,0,0,0,1.742,48.212,13.172,13.172,0,0,1-12.574,17.142Z" transform="translate(-37.159 -126.35)"/><path d="M195.051,94.828a9.946,9.946,0,0,0,12.71-4.342l3.679-6.691a2.971,2.971,0,1,0-5.207-2.863l-3.679,6.691a4,4,0,0,1-5.106,1.768,74.855,74.855,0,0,0-27.436-6.339V55.986a2.971,2.971,0,1,0-5.942,0V83.053a74.847,74.847,0,0,0-27.436,6.339,4,4,0,0,1-5.106-1.768l-15.37-27.958a4.008,4.008,0,0,1,1.773-5.57,115.4,115.4,0,0,1,98.222,0,4.009,4.009,0,0,1,1.773,5.57l-5.966,10.853a2.971,2.971,0,1,0,5.207,2.863l5.966-10.852a9.975,9.975,0,0,0-4.448-13.809,121.349,121.349,0,0,0-103.286,0,9.974,9.974,0,0,0-4.448,13.809l15.37,27.958a9.945,9.945,0,0,0,12.71,4.342A69.4,69.4,0,0,1,195.051,94.828Z" transform="translate(-66.717 -22.611)"/></g></svg>