<svg id="Capa_1" enable-background="new 0 0 512 512" height="512" viewBox="0 0 512 512" width="512" xmlns="http://www.w3.org/2000/svg"><path d="m316.568 511.997h-303.355c-6.155 0-11.145-4.99-11.145-11.145v-489.704c0-6.155 4.99-11.145 11.145-11.145h303.355c6.155 0 11.145 4.99 11.145 11.145v489.703c0 6.156-4.99 11.146-11.145 11.146z" fill="#fff5f4"/><path d="m370.212 203.069s9.672-74.897 91.886-62.52c3.632.547 5.669 4.491 4.019 7.773-9.755 19.403-42.714 74.198-95.905 54.747z" fill="#24d3b5"/><path d="m466.529 144.584c-57.236 2.042-68.918 53.391-70.535 62.471-7.981.518-16.574-.622-25.778-3.991 0 0 9.671-74.889 91.877-62.513 2.281.343 3.929 2.023 4.436 4.033z" fill="#20b7a1"/><path d="m367.316 99.914c-4.294 0-7.774 3.481-7.774 7.774v176.896c0 4.293 3.48 7.774 7.774 7.774s7.774-3.481 7.774-7.774v-176.896c0-4.293-3.48-7.774-7.774-7.774z" fill="#c97e67"/><path d="m502.814 300c-23.321-67.803-82.596-64.027-82.596-64.027-17.541 0-33.577 5.892-45.901 15.633-4.03 3.449-9.972 3.449-14.001 0-36.416-28.785-104.735-20.69-128.496 48.394-5.258 15.286-7.569 31.172-7.051 46.995.67 20.477 6.569 40.524 16.629 58.811l46.82 85.112c7.954 13.018 22.948 21.079 39.21 21.079 14.93 0 28.496-6.761 36.739-17.503 1.602-2.087 4.696-2.087 6.298 0 8.244 10.742 21.81 17.503 36.739 17.503 16.262 0 31.256-8.061 39.21-21.079l46.82-85.112c10.06-18.287 15.959-38.334 16.629-58.811.519-15.823-1.792-31.709-7.049-46.995z" fill="#e7387f"/><g fill="#62a6fd"><path d="m134.659 88.861h141.485c4.294 0 7.774-3.481 7.774-7.774s-3.48-7.774-7.774-7.774h-141.485c-4.294 0-7.774 3.481-7.774 7.774s3.48 7.774 7.774 7.774z"/><path d="m276.144 189.922h-141.485c-4.294 0-7.774 3.481-7.774 7.774s3.48 7.774 7.774 7.774h141.485c4.294 0 7.774-3.481 7.774-7.774s-3.48-7.774-7.774-7.774z"/><path d="m134.659 322.078h53.292c4.294 0 7.774-3.481 7.774-7.774s-3.48-7.774-7.774-7.774h-53.292c-4.294 0-7.774 3.481-7.774 7.774s3.48 7.774 7.774 7.774z"/><path d="m211.618 423.139h-76.959c-4.294 0-7.774 3.481-7.774 7.774s3.48 7.774 7.774 7.774h76.959c4.294 0 7.774-3.481 7.774-7.774s-3.481-7.774-7.774-7.774z"/></g><path d="m346.635 508.03c-5.867 2.56-12.397 3.97-19.207 3.97-16.263 0-31.251-8.064-39.211-21.083l-46.82-85.109c-10.054-18.284-15.962-38.341-16.626-58.812-.518-15.828 1.793-31.707 7.048-46.996 20.99-61.009 71.085-64.067 80.911-64.067 1.037 0 4.812.064 7.152.238-18.232 7.629-39.595 23.985-51.619 58.937-5.38 15.641-7.743 31.894-7.214 48.084.684 20.948 6.717 41.461 17.009 60.17l47.898 87.068c4.8 7.846 12.097 13.931 20.679 17.6z" fill="#e20a62"/><circle cx="76.095" cy="81.087" fill="#62a6fd" r="22.458"/><circle cx="76.095" cy="197.696" fill="#62a6fd" r="22.458"/><circle cx="76.095" cy="314.304" fill="#62a6fd" r="22.458"/><circle cx="76.095" cy="430.913" fill="#62a6fd" r="22.458"/><path d="m49.496 512h-36.279c-6.157 0-11.153-4.996-11.153-11.153v-489.694c0-6.157 4.997-11.153 11.153-11.153h36.278c-6.157 0-11.153 4.996-11.153 11.153v489.694c.001 6.157 4.997 11.153 11.154 11.153z" fill="#ebe0da"/></svg>