<svg id="Layer_1" enable-background="new 0 0 512 512" height="512" viewBox="0 0 512 512" width="512" xmlns="http://www.w3.org/2000/svg"><path d="m354.5 43.576c-60.967 0-96.596 43.506-113.5 74.458-16.904-30.952-51.533-74.458-112.5-74.458-72.686 0-128.5 58.945-128.5 137.124 0 98.3 92.802 160.591 241 287.724 148.198-127.133 241-189.424 241-287.724 0-78.179-54.814-137.124-127.5-137.124z" fill="#ff4b00"/><path d="m354.5 43.576c72.686 0 127.5 58.945 127.5 137.124 0 98.3-92.802 160.591-241 287.725v-350.391c16.904-30.952 52.533-74.458 113.5-74.458z" fill="#e10000"/><path d="m317 237.506v30h-36.7l-54.3 108.6-60-120-20.7 41.4h-145.3v-30h126.7l39.3-78.6 60 120 35.7-71.4z" fill="#deecf1"/><path d="m317 237.506v30h-36.7l-39.3 78.6v-67.2l20.7-41.4z" fill="#c6e2e7"/><path d="m407 147.506c-57.9 0-105 47.1-105 105s47.1 105 105 105 105-47.1 105-105-47.1-105-105-105z" fill="#91eb90"/><path d="m512 252.506c0 57.9-47.1 105-105 105v-210c57.9 0 105 47.101 105 105z" fill="#5bc980"/><path d="m452 237.506v30h-30v30h-30v-30h-30v-30h30v-30h30v30z" fill="#deecf1"/><path d="m452 237.506v30h-30v30h-15v-90h15v30z" fill="#c6e2e7"/></svg>