<svg id="Capa_1" enable-background="new 0 0 512 512" height="512" viewBox="0 0 512 512" width="512" xmlns="http://www.w3.org/2000/svg"><path d="m437.484 24.92c-68.663-31.596-145.115 3.02-171.721 66.893-1.64 3.937-5.499 6.489-9.763 6.489s-8.123-2.552-9.763-6.489c-26.606-63.873-103.059-98.489-171.721-66.893-75.323 34.661-98.308 130.7-46.84 195.707l215.419 272.084c6.59 8.323 19.22 8.323 25.81 0l215.419-272.084c51.468-65.007 28.483-161.046-46.84-195.707z" fill="#ef75a7"/><path d="m227.231 309.414c-.593 0-1.19-.026-1.79-.077-8.602-.742-15.842-6.738-18.176-15.05l-32.633-116.247-22.157 33.489c-3.838 5.802-10.331 9.291-17.288 9.291h-55.313c-11.449 0-20.73-9.281-20.73-20.73s9.281-20.73 20.73-20.73h44.171l41.01-61.984c4.475-6.763 12.481-10.297 20.497-9.041 8.013 1.255 14.557 7.068 16.75 14.877l29.984 106.808 32.735-68.493c3.168-6.629 9.609-11.086 16.928-11.715 7.316-.622 14.427 2.664 18.679 8.655l30.321 42.715 16.231-15.9c3.875-3.796 9.082-5.921 14.507-5.921h70.439c11.449 0 20.73 9.281 20.73 20.73s-9.281 20.73-20.73 20.73h-61.976l-27.537 26.976c-4.333 4.244-10.302 6.38-16.353 5.839-6.043-.541-11.546-3.701-15.057-8.648l-23.975-33.775-41.3 86.411c-3.464 7.246-10.769 11.79-18.697 11.79z" fill="#e7387f"/><path d="m63.952 220.617c-18.812-23.756-27.674-51.659-27.674-79.198 0-47.813 26.721-94.517 74.524-116.512 11.65-5.359 23.539-8.821 35.365-10.541-23.228-3.389-47.896-.383-71.642 10.541-47.804 21.995-74.525 68.699-74.525 116.512 0 27.54 8.862 55.442 27.674 79.198l215.424 272.089c6.592 8.323 19.217 8.323 25.809 0l5.234-6.613z" fill="#eb5793"/></svg>