<svg xmlns="http://www.w3.org/2000/svg" width="106.87" height="118.061" viewBox="0 0 106.87 118.061"><g transform="translate(-24.263 0.003)"><path d="M132.29,104.664c-.293,1.9-.558,3.692-.76,5.335a8.992,8.992,0,0,1-5.989,7.4c-11.316,3.9-37.128,10.406-51.923-4.926a3.605,3.605,0,0,0-3.641-.938,40.392,40.392,0,0,1-21.352.605c-11.994-3.162-16.6-18.385-16.6-30.787V72.007a6.9,6.9,0,0,1,5.989-6.848,7.316,7.316,0,0,1,1.621-.035,36.252,36.252,0,0,1,21.127,9.7,57.387,57.387,0,0,1,6.355,7.117l.014.019a1.647,1.647,0,0,0,2.494.124,22.887,22.887,0,0,1,35.254,2.2.852.852,0,0,0,1.544-.453c.814-16.233,7.4-38.038,8.506-41.618a2.187,2.187,0,0,0,.052-1.086c-.246-1.194-.694-2.738-1.053-4.187a2.2,2.2,0,0,0-1.741-1.635c-9.888-1.816-10.387-2.428-12.931-4.326a1.85,1.85,0,0,0-1.835-.218c-9.63,4.138-11.1-.61-11.1-.61-2.942-9.907-2.9-8.156-2.644-13.869A4.95,4.95,0,0,1,87.1,11.786c4.49-1.457,12.1-3.434,14.549-4.061a3.16,3.16,0,0,1,1.771.054c5.921,1.952,21.136,13.048,21.136,13.048a17,17,0,0,1,6.226,12.539c2.391,35.625,8.087,29,1.511,71.3Z" transform="translate(-5.971 -5.869)" fill="#ffcdbe"/><path d="M132.29,296.647c-.293,1.9-.558,3.692-.76,5.335a8.992,8.992,0,0,1-5.989,7.4c-11.316,3.9-37.128,10.406-51.923-4.926a3.605,3.605,0,0,0-3.641-.938,40.392,40.392,0,0,1-21.352.605c-11.994-3.162-16.6-18.385-16.6-30.787v-9.344a6.9,6.9,0,0,1,5.989-6.848v3.765c0,12.4,4.607,27.627,16.6,30.787a40.386,40.386,0,0,0,21.352-.605,3.6,3.6,0,0,1,3.638.936C92.614,305.51,118.792,302.8,132.29,296.647Z" transform="translate(-5.971 -197.852)" fill="#fcb19f"/><path d="M256.837,28.341a19.368,19.368,0,0,0,7.395-1.836.075.075,0,0,1,.087.012c2.925,2.191,3.79,2.833,13.665,4.645a.442.442,0,0,1,.35.327,33.073,33.073,0,0,1,1.029,4.33c-.77,2.485-3.454,11.4-5.647,21.738a1.759,1.759,0,1,0,3.442.73c5.89-27.779,6.911-18.26,4.591-27.642a3.967,3.967,0,0,0-3.131-2.944c-9.448-1.734-9.834-2.235-12.2-4a3.611,3.611,0,0,0-3.581-.425,16.023,16.023,0,0,1-6.005,1.55c-2.108,0-2.648-.926-2.735-1.112-2.8-9.415-2.79-7.947-2.578-12.643a7.243,7.243,0,0,1,.07-.973,3.174,3.174,0,0,1,2.162-2.5c4.472-1.45,12.186-3.452,14.443-4.031,2.538-.651,19.126,11.142,21.4,12.792a15.239,15.239,0,0,1,5.544,11.262c.383,5.715.871,10.791,1.49,15.518a1.759,1.759,0,1,0,3.489-.457c-.61-4.653-1.09-9.656-1.468-15.3-.42-6.229-3.418-11.268-6.944-13.842-.63-.46-15.51-11.283-21.624-13.3a4.935,4.935,0,0,0-2.759-.088c-2.283.585-10.086,2.61-14.654,4.092a6.682,6.682,0,0,0-4.537,5.205c-.137.731-.21,3.432-.21,4.01,0,2.8.565,3.711,2.83,11.339C251.162,26.114,252.9,28.341,256.837,28.341Z" transform="translate(-172.089)"/><path d="M131.119,229.016c-.14-8.006-1.016-12.47-2.066-18.943a1.759,1.759,0,0,0-3.474.563c1.027,6.336,1.885,10.7,2.021,18.441.235,13.3-2.7,26.463-3.789,35.336A7.271,7.271,0,0,1,119,270.365c-16.565,5.714-37.861,8.18-50.085-4.487a5.375,5.375,0,0,0-5.416-1.4,38.285,38.285,0,0,1-20.395.59c-10.563-2.785-15.291-16.616-15.291-29.088v-9.343a5.156,5.156,0,0,1,5.614-5.136,34.288,34.288,0,0,1,20.168,9.241,55.716,55.716,0,0,1,6.163,6.907,3.406,3.406,0,0,0,5.179.264,21.138,21.138,0,0,1,32.546,2.032,2.614,2.614,0,0,0,4.724-1.4,109.541,109.541,0,0,1,1.54-12.909,1.759,1.759,0,0,0-3.468-.6c-.691,4-1.171,7.685-1.434,10.989a24.659,24.659,0,0,0-36.378-.625,58.566,58.566,0,0,0-6.482-7.242A38.2,38.2,0,0,0,33.818,218a8.676,8.676,0,0,0-9.526,8.633c0,9.474-.632,18.968,3.965,28.94C31.42,262.44,36.243,266.9,42.2,268.47a41.784,41.784,0,0,0,22.309-.624,1.878,1.878,0,0,1,1.866.475c13.276,13.757,35.668,11.612,53.764,5.369a10.812,10.812,0,0,0,7.16-8.848c1.086-8.831,4.054-22.128,3.815-35.827Z" transform="translate(0 -160.499)"/><path d="M171.361,244.3c7.834,6.992,7.464,6.864,8.361,6.864a1.761,1.761,0,0,0,1.172-3.072l-7.189-6.417a1.759,1.759,0,1,0-2.343,2.625Z" transform="translate(-112.728 -185.61)"/><path d="M300.481,225.025l-5.551,7.877a1.759,1.759,0,1,0,2.876,2.027l5.551-7.877a1.759,1.759,0,1,0-2.876-2.027Z" transform="translate(-208.008 -172.566)"/><path d="M242.446,214.7a1.759,1.759,0,1,0,3.5-.4l-1.22-10.643a1.759,1.759,0,0,0-3.5.4Z" transform="translate(-166.926 -155.498)"/></g></svg>