<svg height="512pt" viewBox="-43 0 512 512" width="512pt" xmlns="http://www.w3.org/2000/svg"><path d="m396.371094 131.628906-138.074219-50.253906c-3.125-1.210938-6.378906-2.3125-9.679687-3.285156-1.375-.40625-2.800782-.609375-4.238282-.609375h-62.257812c-1.433594 0-2.859375.203125-4.238282.609375-3.296874.972656-6.550781 2.074218-9.679687 3.285156l-138.070313 50.253906c-23.011718 8.375-35.523437 33.8125-27.894531 56.707032 3.878907 11.636718 12.089844 20.980468 23.121094 26.308593 11.035156 5.332031 23.453125 5.960938 34.96875 1.769531l28.1875-10.257812c1.742187 26.992188 12.113281 52.503906 29.734375 73.082031v190.789063c0 23.144531 18.832031 41.972656 41.972656 41.972656 20.765625 0 38.199219-14.882812 41.453125-35.390625l11.574219-72.925781 11.578125 72.925781c3.253906 20.507813 20.6875 35.390625 41.453125 35.390625 23.140625 0 41.96875-18.828125 41.96875-41.972656v-190.789063c17.625-20.578125 27.996094-46.09375 29.738281-73.085937l28.1875 10.261718c11.515625 4.191407 23.933594 3.5625 34.96875-1.769531 11.03125-5.328125 19.242188-14.671875 23.121094-26.3125 7.628906-22.890625-4.886719-48.328125-27.894531-56.703125zm0 0" fill="#00d7df"/><path d="m396.371094 131.628906-138.074219-50.253906c-3.125-1.210938-6.378906-2.3125-9.679687-3.285156-1.375-.40625-2.800782-.609375-4.238282-.609375h-31.128906v326.203125l11.578125 72.925781c3.253906 20.507813 20.6875 35.390625 41.453125 35.390625 23.140625 0 41.96875-18.828125 41.96875-41.972656v-190.789063c17.625-20.578125 27.996094-46.09375 29.738281-73.085937l28.1875 10.261718c11.515625 4.191407 23.933594 3.5625 34.96875-1.769531 11.03125-5.328125 19.242188-14.671875 23.121094-26.3125 7.628906-22.890625-4.886719-48.328125-27.894531-56.703125zm0 0" fill="#00c7ce"/><path d="m213.25 120c-33.082031 0-60-26.914062-60-60s26.917969-60 60-60c33.085938 0 60 26.914062 60 60s-26.914062 60-60 60zm0 0" fill="#ffbeaa"/><path d="m273.25 60c0-33.085938-26.914062-60-60-60v120c33.085938 0 60-26.914062 60-60zm0 0" fill="#faa68f"/></svg>