<svg xmlns="http://www.w3.org/2000/svg" width="106.87" height="107.093" viewBox="0 0 106.87 107.093"><g transform="translate(-0.522)"><path d="M72.214,30.057A33.531,33.531,0,0,0,69.1,22.265l2.672-6.234L62.418,6.9,56.184,9.574a30.038,30.038,0,0,0-7.793-3.117L46.165,0H33.028L30.579,6.457a33.531,33.531,0,0,0-7.793,3.117L16.553,6.9,7.424,16.031,10.1,22.265a30.038,30.038,0,0,0-3.117,7.793L.522,32.506V45.642l6.457,2.449A33.531,33.531,0,0,0,10.1,55.884L7.424,62.118l9.351,9.129,6.234-2.672A30.038,30.038,0,0,0,30.8,71.692l2.449,6.457H46.164l2.449-6.457a33.531,33.531,0,0,0,7.793-3.117l6.234,2.672,9.351-9.129-2.672-6.234a30.039,30.039,0,0,0,3.117-7.793l6.457-2.449V32.506ZM39.485,54.994A16.031,16.031,0,1,1,55.516,38.963,15.964,15.964,0,0,1,39.485,54.994Z" fill="#84dbff"/><g transform="translate(15.551 15.029)"><path d="M132.243,131.721a15.857,15.857,0,0,1-22.487,0l-5.789,5.789a24.087,24.087,0,0,0,34.065-34.065l-5.789,5.789A15.857,15.857,0,0,1,132.243,131.721Z" transform="translate(-96.954 -96.432)" fill="#54c0eb"/><path d="M78.066,77.544a24.188,24.188,0,0,0,0,34.065l5.789-5.789a15.9,15.9,0,0,1,22.487-22.487l5.789-5.789A24.189,24.189,0,0,0,78.066,77.544Z" transform="translate(-71.053 -70.531)" fill="#54c0eb"/></g><path d="M232.227,356.05a10.805,10.805,0,0,0,0-3.785l2.226-2.226-2.226-5.566H229.11a30.227,30.227,0,0,0-2.672-2.672v-3.117l-5.566-2.226-2.226,2.226a10.805,10.805,0,0,0-3.785,0l-2.226-2.226-5.566,2.226V341.8a30.227,30.227,0,0,0-2.672,2.672h-3.117l-2.226,5.566,2.226,2.226a10.806,10.806,0,0,0,0,3.785l-2.226,2.226,2.226,5.566H204.4a30.225,30.225,0,0,0,2.672,2.672v3.117l5.566,2.226,2.226-2.226a10.805,10.805,0,0,0,3.785,0l2.226,2.226,5.566-2.226v-3.117a30.223,30.223,0,0,0,2.672-2.672h3.117l2.226-5.566Zm-17.812,4.676a7.194,7.194,0,1,1,9.351-4.008A7.119,7.119,0,0,1,214.416,360.725Z" transform="translate(-156.228 -264.765)" fill="#4cdbc4"/><path d="M369.108,219.169a10.805,10.805,0,0,0,0-3.785l2.226-2.226-2.226-5.566h-3.117a30.227,30.227,0,0,0-2.672-2.672V201.8l-5.566-2.226-2.226,2.226a10.807,10.807,0,0,0-3.785,0l-2.226-2.226-5.566,2.226v3.117a30.223,30.223,0,0,0-2.672,2.672H338.16l-2.226,5.566,2.226,2.226a10.805,10.805,0,0,0,0,3.785l-2.226,2.226,2.226,5.566h3.117a30.223,30.223,0,0,0,2.672,2.672v3.117l5.566,2.226,2.226-2.226a10.806,10.806,0,0,0,3.785,0l2.226,2.226,5.566-2.226v-3.117a30.225,30.225,0,0,0,2.672-2.672h3.117l2.226-5.566Zm-18.034,4.9a7.194,7.194,0,1,1,9.351-4.008A6.973,6.973,0,0,1,351.074,224.067Z" transform="translate(-263.943 -157.051)" fill="#ff7058"/></g></svg>